<svg xmlns="http://www.w3.org/2000/svg" width="100" height="50" viewBox="0 0 100 50"><rect width="100%" height="100%" fill="#FFA500"/><path fill="#FFFFFF" d="M24.025 30.26h6.07v2.33h-8.9V17.41h2.83zM46.585 25q0 1.67-.55 3.09t-1.56 2.46q-1 1.04-2.42 1.63-1.42.58-3.15.58-1.72 0-3.14-.58-1.42-.59-2.43-1.63-1.02-1.04-1.57-2.46-.56-1.42-.56-3.09t.56-3.09q.55-1.43 1.57-2.47 1.01-1.04 2.43-1.62t3.14-.58q1.15 0 2.17.27 1.02.26 1.87.75t1.53 1.19 1.15 1.56.72 1.87q.24 1.01.24 2.12m-2.88 0q0-1.25-.34-2.24-.34-1-.96-1.69-.61-.69-1.5-1.06t-2-.37q-1.12 0-2 .37-.89.37-1.51 1.06-.63.69-.97 1.69-.33.99-.33 2.24t.33 2.24q.34.99.97 1.68.62.69 1.51 1.06.88.36 2 .36 1.11 0 2-.36.89-.37 1.5-1.06.62-.69.96-1.68t.34-2.24m12.85-.02h5.04v6.14q-1.16.85-2.46 1.24-1.31.4-2.8.4-1.86 0-3.37-.58-1.5-.58-2.57-1.61t-1.64-2.45q-.58-1.43-.58-3.12 0-1.71.56-3.14.55-1.43 1.58-2.46 1.02-1.03 2.48-1.59 1.46-.57 3.28-.57.92 0 1.72.15.81.14 1.49.4.69.26 1.26.62.57.37 1.04.81l-.81 1.28q-.19.31-.49.38-.31.07-.67-.16-.34-.19-.69-.39t-.77-.35q-.43-.15-.96-.24-.53-.1-1.22-.1-1.12 0-2.03.38t-1.55 1.08q-.64.71-.99 1.69-.34.99-.34 2.21 0 1.3.37 2.32.37 1.03 1.05 1.74t1.63 1.08q.96.37 2.13.37.84 0 1.51-.18.66-.18 1.29-.48V27.1h-1.91q-.28 0-.43-.15-.15-.16-.15-.38zm22.25.02q0 1.67-.55 3.09t-1.56 2.46-2.43 1.63q-1.42.58-3.15.58-1.72 0-3.14-.58-1.42-.59-2.43-1.63t-1.57-2.46q-.55-1.42-.55-3.09t.55-3.09q.56-1.43 1.57-2.47t2.43-1.62 3.14-.58q1.16 0 2.18.27 1.01.26 1.86.75t1.53 1.19 1.15 1.56.72 1.87.25 2.12m-2.89 0q0-1.25-.34-2.24-.33-1-.95-1.69t-1.51-1.06-2-.37-2 .37-1.51 1.06q-.63.69-.96 1.69-.34.99-.34 2.24t.34 2.24q.33.99.96 1.68.62.69 1.51 1.06.89.36 2 .36t2-.36q.89-.37 1.51-1.06t.95-1.68q.34-.99.34-2.24"/></svg>